<?xml version="1.0" encoding="iso-8859-1"?>
<!-- Generator: Adobe Illustrator 19.0.0, SVG Export Plug-In . SVG Version: 6.00 Build 0)  -->
<!-- License: CC0. Made by SVG Repo: https://www.svgrepo.com/svg/168112/security -->
<svg version="1.1" id="Layer_1" xmlns="http://www.w3.org/2000/svg" xmlns:xlink="http://www.w3.org/1999/xlink" x="0px" y="0px"
	 viewBox="0 0 492.8 492.8" style="enable-background:new 0 0 492.8 492.8;" xml:space="preserve">
<path style="fill:#92A7A8;" d="M246,378.4L246,378.4L246,378.4L246,378.4L246,378.4c-8-0.8-16-2.4-24-4v70.4c0,13.6,10.4,24,24,24
	c13.6,0,24-10.4,24-24v-70.4C262,376,254,377.6,246,378.4z"/>
<path style="fill:#7F9393;" d="M246,378.4L246,378.4L246,378.4L246,378.4c-8-0.8-16-2.4-24-4v4.8c0,13.6,10.4,24,24,24
	c13.6,0,24-10.4,24-24v-4.8C262,376,254,377.6,246,378.4L246,378.4z"/>
<path style="fill:#B5005B;" d="M316.4,24.8c-25.6,0-46.4-4-70.4-10.4l0,0l0,0l0,0l0,0c-24,6.4-44.8,10.4-70.4,10.4
	c-26.4,0-49.6-4-73.6-11.2v227.2c0,62.4,64,113.6,144,121.6l0,0l0,0l0,0l0,0c80-8,144-59.2,144-121.6V13.6
	C366,20.8,342.8,24.8,316.4,24.8z"/>
<path style="fill:#AEBFC1;" d="M396.4,480H95.6c-13.6,0-24-10.4-24-24s10.4-24,24-24h301.6c13.6,0,24,10.4,24,24S410,480,396.4,480z
	"/>
<path style="fill:#BECBCC;" d="M71.6,456c0-13.6,10.4-24,24-24h301.6c13.6,0,24,10.4,24,24"/>
<path style="fill:#E0055F;" d="M316.4,13.6c-25.6,0-46.4-4-70.4-10.4l0,0l0,0l0,0l0,0c-24,6.4-44.8,10.4-70.4,10.4
	c-26.4,0-49.6-4-73.6-11.2v227.2c0,62.4,64,113.6,144,121.6l0,0l0,0l0,0l0,0c80-8,144-59.2,144-121.6V3.2
	C366,9.6,342.8,13.6,316.4,13.6z"/>
<path style="fill:#C6005A;" d="M246,352L246,352L246,352L246,352L246,352c80-8.8,144-59.2,144-122.4V3.2
	c-24,7.2-47.2,11.2-73.6,11.2c-25.6,0-46.4-4-70.4-10.4l0,0l0,0l0,0V0"/>
<path style="fill:#B5045D;" d="M274,176.8l26.4-26.4c4-4,5.6-8.8,5.6-13.6s-1.6-10.4-5.6-13.6c-8-8-20-8-28,0L246,148.8l-26.4-26.4
	c-8-8-20-8-28,0s-8,20,0,28l26.4,26.4l-0.8,0.8l0,0l-25.6,25.6c-8,8-8,20,0,28s20,8,28,0l26.4-26.4l26.4,26.4c4,4,8.8,5.6,13.6,5.6
	c4.8,0,10.4-1.6,13.6-5.6c8-8,8-20,0-28L274,176.8z"/>
<path style="fill:#EAEAEA;" d="M274,161.6l26.4-26.4c4-4,5.6-8.8,5.6-13.6s-1.6-10.4-5.6-13.6c-8-8-20-8-28,0L246,133.6l-26.4-26.4
	c-8-8-20-8-28,0s-8,20,0,28l26.4,26.4L191.6,188c-8,8-8,20,0,28s20,8,28,0l26.4-26.4l26.4,26.4c4,4,8.8,5.6,13.6,5.6
	c4.8,0,10.4-1.6,13.6-5.6c8-8,8-20,0-28L274,161.6z"/>
<path style="fill:#FFFFFF;" d="M272.4,107.2L246,133.6l-26.4-26.4c-8-8-20-8-28,0s-8,20,0,28l26.4,26.4l-0.8,0.8
	c9.6,0.8,19.2,1.6,28.8,1.6s19.2-0.8,28.8-1.6l-0.8-0.8l26.4-26.4c4-4,5.6-8.8,5.6-13.6s-1.6-10.4-5.6-13.6
	C292.4,100,279.6,100,272.4,107.2z"/>
<circle style="fill:#363F3E;" cx="246" cy="456" r="36.8"/>
<path style="fill:#112827;" d="M219.6,430.4c14.4-14.4,37.6-14.4,52,0s14.4,37.6,0,52"/>
</svg>
